<?xml version="1.0" encoding="utf-8"?>
<!DOCTYPE svg
  PUBLIC '-//W3C//DTD SVG 1.0//EN'
  'http://www.w3.org/TR/2001/REC-SVG-20010904/DTD/svg10.dtd'>
<svg width="720" height="430" preserveAspectRatio="xMinYMin meet" viewBox="0 0 720 430" xmlns="http://www.w3.org/2000/svg" version="1.0" fill-rule="evenodd" xmlns:xlink="http://www.w3.org/1999/xlink">
	<title>...</title>
	<desc>...</desc>
	<clipPath id="clip">
		<rect x="0" y="0" width="720" height="430"/>
	</clipPath>
	<g id="group" transform="scale(1,-1) translate(0,-430)" style="clip-path: url(#clip)">
		<g transform="">
			<rect x="0" y="0" width="720" height="430" style="stroke: none; stroke-linecap: butt; stroke-width: 1; fill: rgb(100%,100%,100%); fill-rule: evenodd;"/>
			<text x="12" y="407" style="font-family: 'Microsoft YaHei', 'Noto Sans CJK SC', sans-serif; font-weight: 700; font-size: 19px;fill: rgb(8%,20%,29%); stroke:none;" transform="translate(0,814) scale(1,-1)">06  三个实验，三个不同问题</text>
			<text x="12" y="381" style="font-family: 'Microsoft YaHei', 'Noto Sans CJK SC', sans-serif; font-size: 13px;fill: rgb(38%,45%,50%); stroke:none;" transform="translate(0,762) scale(1,-1)">保持时间隔离：先执行并评分，再释放反馈更新；不把未来答案带入生成。</text>
			<rect x="12" y="227" width="215" height="117" rx="10" ry="10" style="stroke: rgb(13%,40%,60%); stroke-linecap: butt; stroke-width: 1.2; fill: rgb(92%,95%,98%); fill-rule: evenodd;"/>
			<text x="27" y="315" style="font-family: 'Microsoft YaHei', 'Noto Sans CJK SC', sans-serif; font-weight: 700; font-size: 17px;fill: rgb(13%,40%,60%); stroke:none;" transform="translate(0,630) scale(1,-1)">E1  沉淀质量</text>
			<text x="27" y="289" style="font-family: 'Microsoft YaHei', 'Noto Sans CJK SC', sans-serif; font-size: 14px;fill: rgb(8%,20%,29%); stroke:none;" transform="translate(0,578) scale(1,-1)">全部合格会话</text>
			<text x="27" y="266" style="font-family: 'Microsoft YaHei', 'Noto Sans CJK SC', sans-serif; font-size: 14px;fill: rgb(8%,20%,29%); stroke:none;" transform="translate(0,532) scale(1,-1)">无效数量 / 方法保留</text>
			<text x="27" y="243" style="font-family: 'Microsoft YaHei', 'Noto Sans CJK SC', sans-serif; font-size: 14px;fill: rgb(8%,20%,29%); stroke:none;" transform="translate(0,486) scale(1,-1)">生成与审核总开销</text>
			<rect x="252" y="227" width="215" height="117" rx="10" ry="10" style="stroke: rgb(13%,40%,60%); stroke-linecap: butt; stroke-width: 1.2; fill: rgb(92%,95%,98%); fill-rule: evenodd;"/>
			<text x="267" y="315" style="font-family: 'Microsoft YaHei', 'Noto Sans CJK SC', sans-serif; font-weight: 700; font-size: 17px;fill: rgb(13%,40%,60%); stroke:none;" transform="translate(0,630) scale(1,-1)">E2  未来任务</text>
			<text x="267" y="289" style="font-family: 'Microsoft YaHei', 'Noto Sans CJK SC', sans-serif; font-size: 14px;fill: rgb(8%,20%,29%); stroke:none;" transform="translate(0,578) scale(1,-1)">未见任务与输入</text>
			<text x="267" y="266" style="font-family: 'Microsoft YaHei', 'Noto Sans CJK SC', sans-serif; font-size: 14px;fill: rgb(8%,20%,29%); stroke:none;" transform="translate(0,532) scale(1,-1)">业务成功 / 个人偏好</text>
			<text x="267" y="243" style="font-family: 'Microsoft YaHei', 'Noto Sans CJK SC', sans-serif; font-size: 14px;fill: rgb(8%,20%,29%); stroke:none;" transform="translate(0,486) scale(1,-1)">强摘要与经验检索对照</text>
			<rect x="492" y="227" width="215" height="117" rx="10" ry="10" style="stroke: rgb(13%,40%,60%); stroke-linecap: butt; stroke-width: 1.2; fill: rgb(92%,95%,98%); fill-rule: evenodd;"/>
			<text x="507" y="315" style="font-family: 'Microsoft YaHei', 'Noto Sans CJK SC', sans-serif; font-weight: 700; font-size: 17px;fill: rgb(13%,40%,60%); stroke:none;" transform="translate(0,630) scale(1,-1)">E3  连续演化</text>
			<text x="507" y="289" style="font-family: 'Microsoft YaHei', 'Noto Sans CJK SC', sans-serif; font-size: 14px;fill: rgb(8%,20%,29%); stroke:none;" transform="translate(0,578) scale(1,-1)">共同初始技能库</text>
			<text x="507" y="266" style="font-family: 'Microsoft YaHei', 'Noto Sans CJK SC', sans-serif; font-size: 14px;fill: rgb(8%,20%,29%); stroke:none;" transform="translate(0,532) scale(1,-1)">更新分支 vs 冻结分支</text>
			<text x="507" y="243" style="font-family: 'Microsoft YaHei', 'Noto Sans CJK SC', sans-serif; font-size: 14px;fill: rgb(8%,20%,29%); stroke:none;" transform="translate(0,486) scale(1,-1)">新收益 / 旧能力退化</text>
			<path d="M 227,285 L 252,285 Z" style="stroke: rgb(38%,45%,50%); stroke-linecap: butt; stroke-width: 1.5;"/>
			<polygon points="252 285, 244.7964 288.4797, 244.7964 281.5203" style="stroke: none; stroke-linecap: butt; stroke-width: 1; fill: rgb(38%,45%,50%); fill-rule: evenodd;"/>
			<path d="M 467,285 L 492,285 Z" style="stroke: rgb(38%,45%,50%); stroke-linecap: butt; stroke-width: 1.5;"/>
			<polygon points="492 285, 484.7964 288.4797, 484.7964 281.5203" style="stroke: none; stroke-linecap: butt; stroke-width: 1; fill: rgb(38%,45%,50%); fill-rule: evenodd;"/>
			<rect x="12" y="87" width="695" height="86" rx="10" ry="10" style="stroke: rgb(8%,49%,47%); stroke-linecap: butt; stroke-width: 1.2; fill: rgb(91%,96%,94%); fill-rule: evenodd;"/>
			<text x="27" y="144" style="font-family: 'Microsoft YaHei', 'Noto Sans CJK SC', sans-serif; font-weight: 700; font-size: 17px;fill: rgb(8%,49%,47%); stroke:none;" transform="translate(0,288) scale(1,-1)">跨实验共同约束</text>
			<text x="27" y="118" style="font-family: 'Microsoft YaHei', 'Noto Sans CJK SC', sans-serif; font-size: 14px;fill: rgb(8%,20%,29%); stroke:none;" transform="translate(0,236) scale(1,-1)">固定消费者与信息口径；模型内部请求 / tokens / 失败 / 人工均计入成本。</text>
			<text x="12" y="35" style="font-family: 'Microsoft YaHei', 'Noto Sans CJK SC', sans-serif; font-size: 14px;fill: rgb(38%,45%,50%); stroke:none;" transform="translate(0,70) scale(1,-1)">工业证据另需真实员工试点、授权范围、运行周期与净人工时间。此图没有结果数值。</text>
		</g>
	</g>
</svg>
